This is my own rip.  There is a small logo for 60 seconds every 40 minutes.

General
Unique ID                        : 177407831677039750209490788760928707335 (0x8577816B0A6E2AE6B7453FC5CB4CE307)
Format                           : Matroska
Format version                   : Version 4 / Version 2
File size                        : 1.24 GiB
Duration                         : 1h 35mn
Overall bit rate mode            : Variable
Overall bit rate                 : 1 869 Kbps
Encoded date                     : UTC 2013-06-18 02:16:14
Writing application              : mkvmerge v6.1.0 ('Old Devil') built on Mar  2 2013 14:32:37
Writing library                  : libebml v1.3.0 + libmatroska v1.4.0

Video
ID                               : 1
Format                           : AVC
Format/Info                      : Advanced Video Codec
Format profile                   : High@L4.1
Format settings, CABAC           : Yes
Format settings, ReFrames        : 7 frames
Codec ID                         : V_MPEG4/ISO/AVC
Duration                         : 1h 35mn
Bit rate mode                    : Variable
Bit rate                         : 1 383 Kbps
Maximum bit rate                 : 22.1 Mbps
Width                            : 1 280 pixels
Height                           : 688 pixels
Display aspect ratio             : 1.860
Frame rate                       : 23.976 fps
Color space                      : YUV
Chroma subsampling               : 4:2:0
Bit depth                        : 8 bits
Scan type                        : Progressive
Bits/(Pixel*Frame)               : 0.066
Stream size                      : 942 MiB (74%)
Writing library                  : x264 core 129 r2245 bc13772
Language                         : English
Default                          : Yes
Forced                           : No

Audio
ID                               : 2
Format                           : AC-3
Format/Info                      : Audio Coding 3
Mode extension                   : CM (complete main)
Codec ID                         : A_AC3
Duration                         : 1h 35mn
Bit rate mode                    : Constant
Bit rate                         : 448 Kbps
Channel(s)                       : 6 channels
Channel positions                : Front: L C R, Side: L R, LFE
Sampling rate                    : 48.0 KHz
Bit depth                        : 16 bits
Compression mode                 : Lossy
Stream size                      : 305 MiB (24%)
Language                         : English
Default                          : Yes
Forced                           : No

Menu
00:00:00.000                     : en:World Celebration
00:03:29.084                     : en:Night of the Comet
00:11:09.335                     : en:The Morning After
00:13:18.756                     : en:Danger in the Alley
00:19:27.416                     : en:Just Us
00:25:58.390                     : en:At the Radio Station
00:31:40.482                     : en:555-HITS
00:35:57.739                     : en:Nightmares
00:40:28.009                     : en:Family
00:45:33.522                     : en:Hector's Trip Home
00:48:37.103                     : en:Acceleration
00:50:43.938                     : en:Having Fun
00:55:30.786                     : en:Attention, Shoppers
01:01:32.169                     : en:Russian Roulette
01:03:58.732                     : en:Blood Tests
01:11:54.644                     : en:Medical Interview
01:19:05.407                     : en:Adolescent Escapee
01:25:44.806                     : en:What's That Smell?
01:28:33.016                     : en:Burden of Civilization
01:30:52.344                     : en:DMK
01:32:23.955                     : en:End Credits
